<svg width="17" height="17" viewBox="0 0 17 17" fill="none" xmlns="http://www.w3.org/2000/svg">
<g clip-path="url(#clip0_693_14)">
<path d="M8.86807 4.92908C4.70174 4.92908 1.49598 8.59951 1.49598 8.59951L1.19922 8.9275L1.49598 9.2555C1.49598 9.2555 4.41865 12.5882 8.30579 12.8947C8.49127 12.9181 8.67674 12.9259 8.86807 12.9259C9.0594 12.9259 9.24488 12.9181 9.43035 12.8947C13.3175 12.5882 16.2402 9.2555 16.2402 9.2555L16.5369 8.9275L16.2402 8.59951C16.2402 8.59951 13.0344 4.92908 8.86807 4.92908ZM8.86807 5.92868C9.9692 5.92868 10.9844 6.22935 11.8669 6.63153C12.1851 7.15867 12.3667 7.76585 12.3667 8.4277C12.3667 10.2336 11.0118 11.7174 9.25854 11.9107C9.24878 11.9127 9.23707 11.9087 9.2273 11.9107C9.10821 11.9166 8.98912 11.9263 8.86807 11.9263C8.73531 11.9263 8.60646 11.9185 8.4776 11.9107C6.72439 11.7174 5.36945 10.2336 5.36945 8.4277C5.36945 7.77561 5.54516 7.16843 5.85363 6.64715H5.83802C6.72829 6.23716 7.75523 5.92868 8.86807 5.92868ZM8.86807 6.92829C8.04027 6.92829 7.36866 7.5999 7.36866 8.4277C7.36866 9.2555 8.04027 9.92711 8.86807 9.92711C9.69587 9.92711 10.3675 9.2555 10.3675 8.4277C10.3675 7.5999 9.69587 6.92829 8.86807 6.92829ZM4.49479 7.39685C4.4167 7.73266 4.36984 8.07042 4.36984 8.4277C4.36984 9.30431 4.61975 10.1243 5.05707 10.8174C3.7978 10.0892 2.92315 9.22035 2.63615 8.9275C2.87629 8.6815 3.54595 8.02942 4.49479 7.39685ZM13.2413 7.39685C14.1902 8.02942 14.8599 8.6815 15.1 8.9275C14.813 9.22035 13.9383 10.0892 12.6791 10.8174C13.1164 10.1243 13.3663 9.30431 13.3663 8.4277C13.3663 8.07042 13.3194 7.72876 13.2413 7.39685Z" fill="white"/>
</g>
<defs>
<clipPath id="clip0_693_14">
<rect width="15.9937" height="15.9937" fill="white" transform="translate(0.871094 0.930634)"/>
</clipPath>
</defs>
</svg>
